<?xml version="1.0" standalone="no"?>
<!DOCTYPE svg PUBLIC "-//W3C//DTD SVG 20010904//EN"
 "http://www.w3.org/TR/2001/REC-SVG-20010904/DTD/svg10.dtd">
<svg version="1.0" xmlns="http://www.w3.org/2000/svg"
 width="2560.000000pt" height="652.000000pt" viewBox="0 0 2560.000000 652.000000"
 preserveAspectRatio="xMidYMid meet">

<g transform="translate(0.000000,652.000000) scale(0.100000,-0.100000)"
fill="#000000" stroke="none">
<path d="M20 5475 l0 -1045 585 0 585 0 0 495 0 495 894 0 c964 0 977 -1 1133
-54 586 -200 856 -881 563 -1423 -133 -246 -361 -426 -636 -500 l-99 -27 -805
-6 c-784 -6 -808 -7 -905 -29 -225 -50 -458 -153 -635 -278 -292 -209 -524
-544 -619 -893 -56 -204 -54 -174 -58 -1172 l-4 -928 586 0 585 0 0 833 c0
917 -1 896 63 1026 45 93 159 207 254 255 133 66 125 66 868 66 387 0 719 5
785 11 821 75 1526 618 1800 1387 86 242 122 454 122 717 0 196 -15 330 -58
505 -216 877 -962 1517 -1864 1599 -74 7 -651 11 -1627 11 l-1513 0 0 -1045z"/>
<path d="M13590 5412 c0 -434 -1 -475 -20 -546 -28 -110 -74 -190 -155 -271
-126 -126 -259 -175 -482 -175 l-123 0 0 -460 0 -460 389 0 390 0 4 -1007 c4
-1108 2 -1079 67 -1331 161 -622 594 -1006 1245 -1106 281 -43 563 -27 888 50
l107 26 0 468 0 468 -297 4 c-267 4 -306 7 -378 26 -126 35 -201 76 -281 156
-109 109 -161 239 -184 457 -6 61 -10 435 -10 945 l0 844 630 0 630 0 0 460 0
460 -630 0 -630 0 0 730 0 730 -580 0 -580 0 0 -468z"/>
<path d="M6835 4499 c-803 -97 -1339 -582 -1499 -1359 -49 -236 -49 -223 -53
-1662 l-4 -1368 580 0 580 0 4 1293 c4 1408 2 1350 61 1525 37 109 81 179 165
262 82 81 154 125 274 166 127 43 239 56 495 55 l232 -1 0 519 c0 486 -1 520
-17 525 -10 3 -72 15 -138 27 -95 17 -169 22 -360 24 -132 2 -276 -1 -320 -6z"/>
<path d="M10035 4495 c-1049 -122 -1825 -857 -1980 -1875 -36 -238 -30 -556
16 -801 163 -882 817 -1556 1699 -1752 353 -78 770 -79 1120 -1 327 73 661
231 915 432 504 400 797 1000 822 1682 40 1094 -640 2003 -1689 2259 -68 16
-170 37 -228 46 -147 23 -520 28 -675 10z m523 -1011 c229 -41 429 -150 594
-322 94 -98 147 -176 209 -306 107 -227 149 -491 118 -763 -71 -642 -533
-1073 -1149 -1073 -573 0 -1015 371 -1131 950 -11 52 -22 156 -25 230 -11 239
31 457 126 656 60 128 113 206 204 302 265 281 647 399 1054 326z"/>
<path d="M18450 4503 c-448 -45 -795 -163 -1124 -383 -488 -328 -812 -825
-921 -1415 -82 -445 -38 -910 125 -1320 106 -267 308 -570 501 -750 446 -417
991 -626 1629 -627 297 0 533 36 795 123 818 270 1375 953 1490 1824 20 155
21 462 0 613 -133 999 -846 1737 -1840 1906 -182 31 -497 45 -655 29z m325
-1003 c547 -52 943 -440 1031 -1015 23 -149 14 -415 -19 -555 -128 -540 -530
-884 -1062 -907 -600 -26 -1066 340 -1190 937 -23 107 -33 288 -24 410 9 128
14 159 45 278 125 472 503 801 979 851 115 12 119 12 240 1z"/>
<path d="M23315 4500 c-676 -75 -1173 -371 -1471 -875 -109 -186 -187 -408
-235 -665 l-24 -125 -3 -1362 -3 -1363 581 0 580 0 0 1258 c0 1361 0 1346 55
1536 83 286 259 475 516 554 92 29 248 45 349 38 365 -29 605 -213 719 -552
68 -201 64 -125 68 -1547 l4 -1287 575 0 575 0 -4 1353 c-3 1489 0 1409 -67
1672 -150 593 -538 1029 -1103 1239 -116 44 -303 90 -447 112 -123 18 -544 27
-665 14z"/>
</g>
</svg>
